<svg width="431" height="50" viewBox="0 0 431 50" fill="none" xmlns="http://www.w3.org/2000/svg">
<path d="M31.1093 0.556848L18.8877 12.7784L31.1093 25L43.3309 12.7784L31.1093 0.556848Z" fill="#27E64A"/>
<path d="M43.331 12.7784L31.1094 25L43.331 37.2216L55.5526 25L43.331 12.7784Z" fill="#05B343"/>
<path d="M31.1093 25.0001L18.8877 37.2217L31.1093 49.4433L43.3309 37.2217L31.1093 25.0001Z" fill="#1ECAED"/>
<rect x="6.66602" y="25" width="8.64197" height="8.64198" transform="rotate(-45 6.66602 25)" fill="#B95311"/>
<rect x="0.555176" y="18.8893" width="8.64198" height="8.64198" transform="rotate(-45 0.555176 18.8893)" fill="#F8D009"/>
<rect x="0.555176" y="31.1108" width="8.64198" height="8.64198" transform="rotate(-45 0.555176 31.1108)" fill="#EC6212"/>
<path d="M79.4041 12.2379C73.2803 12.2379 70.2428 16.0101 70.2428 20.3213C70.2428 24.3876 72.7414 26.7391 78.1793 27.67C81.9027 28.3558 82.6865 29.2377 82.6865 30.7564C82.6865 32.2261 81.5597 33.1079 79.6001 33.1079C77.4445 33.1079 76.0727 32.0791 76.0238 30.0705H69.7529C69.8999 34.9696 73.3293 38.154 79.4531 38.154C84.5971 38.154 89.0553 35.7044 89.0553 30.0705C89.0553 26.0043 86.9977 23.5547 80.9718 22.5259C77.4935 21.938 76.6116 21.2032 76.6116 19.6845C76.6116 18.2637 77.5425 17.2349 79.3551 17.2349C81.2658 17.2349 82.1476 18.2637 82.1966 20.0764H88.5164C88.3204 15.3733 84.6461 12.2379 79.4041 12.2379Z" fill="black"/>
<path d="M106.543 12.2379C102.33 12.2379 100.027 14.0995 98.6556 16.1081L98.2147 12.7768H92.7277V48.1481H99.0965V34.8716C100.37 36.6843 102.967 38.154 106.543 38.154C113.206 38.154 118.105 32.471 118.105 25.1714C118.105 17.8718 113.206 12.2379 106.543 12.2379ZM105.22 18.2147C108.748 18.2147 111.491 20.9092 111.491 25.1714C111.491 29.4336 108.699 32.1771 105.22 32.1771C102.134 32.1771 98.9985 29.7276 98.9495 25.3674V25.0734C98.9495 20.6153 102.085 18.2147 105.22 18.2147Z" fill="black"/>
<path d="M135.058 12.5318C130.845 12.5318 128.64 14.5404 127.807 16.745L127.22 12.7768H121.733V37.6151H128.101V24.9755C128.199 22.7219 128.934 21.3011 130.11 20.3703C131.58 19.2435 133.098 18.9006 135.058 18.9006V12.5318Z" fill="black"/>
<path d="M148.353 12.2379C140.955 12.2379 136.007 17.7248 136.007 25.2204C136.007 33.0589 141.004 38.154 148.353 38.154C154.379 38.154 158.2 35.0676 159.719 29.8255H153.546C152.86 31.6872 150.998 32.716 148.549 32.716C145.071 32.716 142.768 30.4134 142.572 27.1311H159.866V25.1714C159.866 16.3531 154.918 12.2379 148.353 12.2379ZM148.206 17.5289C151.341 17.5289 153.399 19.5865 153.448 22.7219H142.621C142.915 19.6845 145.022 17.5289 148.206 17.5289Z" fill="black"/>
<path d="M172.877 12.2379C166.999 12.2379 163.275 15.9122 162.981 20.9582H169.154C169.154 18.9496 170.771 17.6758 172.877 17.6758C175.131 17.6758 176.356 18.9986 176.356 21.4481V22.3789L169.938 23.5547C165.529 24.2896 162.246 26.1512 162.246 31.0013C162.246 35.4595 165.382 38.154 169.791 38.154C173.318 38.154 175.572 36.5863 176.895 34.5777L177.287 37.6151H182.725V21.3011C182.725 15.2263 178.756 12.2379 172.877 12.2379ZM176.356 26.6411V27.376C176.356 28.6008 176.013 29.8255 175.474 30.6584C174.592 32.1281 173.073 32.912 171.506 32.912C169.644 32.912 168.615 31.9321 168.615 30.4624C168.615 28.7967 169.742 28.0619 171.408 27.67L176.356 26.6411Z" fill="black"/>
<path d="M211.072 1.85181H204.703V15.4712C203.38 13.7076 200.784 12.2379 197.256 12.2379C190.545 12.2379 185.695 17.8718 185.695 25.1714C185.695 32.471 190.545 38.154 197.207 38.154C201.47 38.154 203.723 36.2923 205.095 34.2837L205.585 37.6151H211.072V1.85181ZM198.53 18.2147C201.617 18.2147 204.752 20.6153 204.801 25.0244V25.3184C204.801 29.7766 201.666 32.1771 198.53 32.1771C195.003 32.1771 192.259 29.4336 192.259 25.1714C192.259 20.9582 195.052 18.2147 198.53 18.2147Z" fill="black"/>
<path d="M224.208 12.2379C218.084 12.2379 215.047 16.0101 215.047 20.3213C215.047 24.3876 217.546 26.7391 222.984 27.67C226.707 28.3558 227.491 29.2377 227.491 30.7564C227.491 32.2261 226.364 33.1079 224.404 33.1079C222.249 33.1079 220.877 32.0791 220.828 30.0705H214.557C214.704 34.9696 218.133 38.154 224.257 38.154C229.401 38.154 233.859 35.7044 233.859 30.0705C233.859 26.0043 231.802 23.5547 225.776 22.5259C222.298 21.938 221.416 21.2032 221.416 19.6845C221.416 18.2637 222.347 17.2349 224.159 17.2349C226.07 17.2349 226.952 18.2637 227.001 20.0764H233.321C233.125 15.3733 229.45 12.2379 224.208 12.2379Z" fill="black"/>
<path d="M243.705 1.85181H237.385V37.6151H243.705V24.4855C243.705 20.3703 245.664 18.4107 248.114 18.4107C250.416 18.4107 251.641 19.9784 251.641 22.8689V37.6151H258.059V21.4971C258.059 15.8632 255.316 12.2379 250.025 12.2379C246.791 12.2379 244.783 13.7566 243.705 15.3733V1.85181Z" fill="black"/>
<path d="M273.528 12.2379C266.131 12.2379 261.183 17.7248 261.183 25.2204C261.183 33.0589 266.18 38.154 273.528 38.154C279.554 38.154 283.375 35.0676 284.894 29.8255H278.721C278.035 31.6872 276.174 32.716 273.724 32.716C270.246 32.716 267.943 30.4134 267.747 27.1311H285.041V25.1714C285.041 16.3531 280.093 12.2379 273.528 12.2379ZM273.381 17.5289C276.517 17.5289 278.574 19.5865 278.623 22.7219H267.796C268.09 19.6845 270.197 17.5289 273.381 17.5289Z" fill="black"/>
<path d="M299.712 12.2379C292.314 12.2379 287.366 17.7248 287.366 25.2204C287.366 33.0589 292.363 38.154 299.712 38.154C305.737 38.154 309.559 35.0676 311.077 29.8255H304.905C304.219 31.6872 302.357 32.716 299.908 32.716C296.429 32.716 294.127 30.4134 293.931 27.1311H311.224V25.1714C311.224 16.3531 306.276 12.2379 299.712 12.2379ZM299.565 17.5289C302.7 17.5289 304.758 19.5865 304.807 22.7219H293.98C294.274 19.6845 296.38 17.5289 299.565 17.5289Z" fill="black"/>
<path d="M322.913 6.75088H316.495L316.447 12.7768H312.38V18.5577H316.447L316.349 30.1195C316.3 35.7534 319.092 37.958 324.53 37.958C326.49 37.958 327.763 37.7131 328.547 37.4191V31.8342C327.861 32.0301 327.175 32.1771 325.951 32.1771C323.501 32.1771 322.717 31.1483 322.717 28.6008L322.815 18.5577H328.547V12.7768H322.864L322.913 6.75088Z" fill="black"/>
<path d="M334.993 30.4624C332.789 30.4624 331.074 32.0791 331.074 34.2837C331.074 36.4883 332.789 38.154 334.993 38.154C337.149 38.154 338.912 36.4883 338.912 34.2837C338.912 32.0791 337.149 30.4624 334.993 30.4624Z" fill="black"/>
<path d="M352.19 12.2379C344.939 12.2379 339.746 17.7248 339.746 25.2204C339.746 32.912 344.939 38.154 352.19 38.154C357.921 38.154 362.576 35.0186 363.751 28.8457H357.53C356.942 30.8544 355.031 32.3241 352.483 32.3241C348.858 32.3241 346.311 29.3356 346.311 25.2204C346.311 21.0072 348.907 18.0188 352.336 18.0188C354.835 18.0188 356.746 19.2925 357.481 21.5461H363.653C362.723 15.2753 358.019 12.2379 352.19 12.2379Z" fill="black"/>
<path d="M378.529 12.2379C371.082 12.2379 365.546 17.4799 365.546 25.1714C365.546 32.863 371.082 38.154 378.529 38.154C386.025 38.154 391.609 32.863 391.609 25.1714C391.609 17.4799 386.025 12.2379 378.529 12.2379ZM378.578 18.0188C382.448 18.0188 384.996 21.0562 384.996 25.1714C384.996 29.2377 382.448 32.3241 378.578 32.3241C374.757 32.3241 372.111 29.2377 372.111 25.1714C372.111 21.0562 374.757 18.0188 378.578 18.0188Z" fill="black"/>
<path d="M421.918 12.2379C418.391 12.2379 415.941 14.2465 414.765 16.598C413.59 13.8545 411.189 12.2379 407.662 12.2379C404.428 12.2379 402.175 13.9035 401.048 16.0101L400.558 12.7768H395.12V37.6151H401.44V24.4855C401.44 20.3703 403.35 18.4107 405.8 18.4107C408.103 18.4107 409.278 19.9784 409.278 22.8689V37.6151H415.647V24.1916C415.745 20.2723 417.656 18.4107 420.007 18.4107C422.359 18.4107 423.486 19.9784 423.486 22.8689V37.6151H429.854V21.4971C429.854 15.8632 427.209 12.2379 421.918 12.2379Z" fill="black"/>
</svg>
